<svg width="109" height="30" xmlns="http://www.w3.org/2000/svg"><g fill="none" fill-rule="evenodd"><path fill="#0B373D" d="M-120-36h1440V64H-120z"></path><path d="M11.083 16.335c1.53 0 2.772-1.259 2.772-2.812 0-1.554-1.241-2.813-2.772-2.813-1.531 0-2.773 1.26-2.773 2.813 0 1.553 1.242 2.812 2.773 2.812zM21.34 1.327c.477.084.825.504.825.996v15.541c0 4-2.687 5.751-4.511 7.343-1.484 1.295-4.9 3.195-6.124 3.86a.934.934 0 0 1-.895 0c-1.224-.665-4.64-2.565-6.123-3.86C2.687 23.615 0 21.864 0 17.864V2.324c0-.493.348-.913.825-.997C2.5 1.029 6.525.413 11.083.413c4.557 0 8.582.616 10.257.914zm33.264 22.946V9.913h3.033v14.36h-3.033zM56.121 3.92c1.01 0 1.783.783 1.783 1.89 0 1.08-.772 1.863-1.783 1.863s-1.783-.783-1.783-1.863c0-1.107.772-1.89 1.783-1.89zm7.955 9.772c0 2.645 7.53 1.215 7.503 6.424 0 2.942-2.58 4.265-5.428 4.265-2.075 0-4.283-.702-5.693-1.997l1.09-2.214c1.224 1.107 3.193 1.782 4.737 1.782 1.303 0 2.314-.46 2.314-1.539 0-2.942-7.45-1.296-7.423-6.478 0-2.916 2.501-4.157 5.215-4.157 1.782 0 3.672.54 4.949 1.457l-1.118 2.295c-1.25-.783-2.82-1.269-4.07-1.269-1.198 0-2.076.405-2.076 1.43zM76.182 3.92c1.01 0 1.782.783 1.782 1.89 0 1.08-.771 1.863-1.782 1.863-1.011 0-1.783-.783-1.783-1.863 0-1.107.772-1.89 1.783-1.89zm-1.517 20.353V9.913h3.033v14.36h-3.033zm20.513-14.36l-5.241 5.56 5.64 8.8H91.96l-4.15-6.586-2.395 2.564v4.022h-3.06V4.244h3.06v12.093l6.252-6.424h3.512zm10.643 9.312v-1.322h-3.831c-1.995 0-2.927.54-2.927 1.916 0 1.296 1.038 2.133 2.74 2.133 2.182 0 3.859-1.161 4.018-2.727zm3.033 5.048h-3.006v-1.754c-1.011 1.268-2.634 1.89-4.683 1.89-3.06 0-4.975-1.917-4.975-4.455 0-2.618 1.942-4.292 5.348-4.319h4.283v-.432c0-1.808-1.144-2.888-3.379-2.888-1.357 0-2.767.486-4.177 1.458l-1.25-2.16c1.969-1.187 3.405-1.808 6.093-1.808 3.645 0 5.693 1.89 5.72 5.048l.026 9.42zM43.11 15.716h-4.416V8.24h4.416c2.874 0 4.523 1.188 4.523 3.671 0 2.565-1.65 3.806-4.523 3.806m7.503-3.887c0-4.103-2.74-6.451-7.503-6.451h-7.556v18.895h3.14v-5.695h4.416c.293 0 .585 0 .852-.027l3.405 5.722h3.566l-4.178-6.316c2.475-.972 3.858-3.104 3.858-6.128" fill="#FFF"></path><path d="M11.083 16.335c-1.531 0-2.773-1.259-2.773-2.812 0-1.554 1.242-2.813 2.773-2.813 1.53 0 2.772 1.26 2.772 2.813 0 1.553-1.241 2.812-2.772 2.812M21.34 1.327c-1.675-.298-5.7-.914-10.257-.914-4.558 0-8.583.616-10.258.914A1.007 1.007 0 0 0 0 2.323v15.541c0 4 2.687 5.751 4.512 7.343 1.483 1.295 4.899 3.195 6.123 3.86.28.152.615.152.895 0 1.225-.665 4.64-2.565 6.124-3.86 1.824-1.592 4.511-3.343 4.511-7.343V2.324c0-.493-.348-.913-.825-.997" fill="#54BDCB"></path></g></svg>